<svg width="53" height="71" viewBox="0 0 53 71" fill="none" xmlns="http://www.w3.org/2000/svg">
<path d="M19.1435 39.5V20.5909H31.6634V23.8871H23.1413V28.3928H30.8324V31.6889H23.1413V39.5H19.1435Z" fill="#FF0066"/>
<path d="M22.992 60.6855C22.963 60.6324 22.934 60.5793 20.6733 57.3213C18.4125 54.0634 13.9208 47.6021 10.5069 42.111C7.09294 36.6198 4.89285 32.2945 3.47897 29.1309C2.06509 25.9673 1.5041 24.0964 1.07457 21.3676C0.645047 18.6388 0.363987 15.1087 0.567753 12.1526C0.771519 9.19645 1.46863 6.92126 2.45966 5.15739C3.45069 3.39353 4.71453 2.20993 6.17752 1.5052C8.98274 0.153899 11.837 0.485851 13.5967 0.693776C15.2858 0.893351 16.694 1.56644 17.8843 2.2961C20.3758 3.82345 20.9418 8.03475 21.8311 11.6061C22.1278 12.7976 22.4759 12.6635 23.9068 11.4965C25.3377 10.3295 27.9342 8.11707 29.7259 6.73891C32.2891 4.76747 34.3207 4.15598 36.2924 3.7669C38.299 3.37091 40.518 3.52095 43.02 3.78878C46.1639 4.12531 48.3865 5.29996 49.5536 6.08569C50.7028 6.85942 51.5505 8.69347 52.2394 11.2438C52.8894 13.6504 52.2224 16.389 51.3488 19.4526C50.8872 21.071 49.9556 22.7332 44.7314 30.7822C39.5072 38.8312 29.908 53.1947 24.879 60.8329C19.85 68.471 19.6821 68.9486 19.5608 69.3694C19.4394 69.7902 19.3697 70.1398 19.2979 70.5" stroke="black" stroke-linecap="round"/>
</svg>
