<svg width="93" height="108" viewBox="0 0 93 108" fill="none" xmlns="http://www.w3.org/2000/svg">
<path d="M33.0916 60.5V30.6818H52.8345V35.8796H39.396V42.9847H51.5241V48.1825H39.396V60.5H33.0916Z" fill="#FF0066"/>
<path d="M40.2935 92.4979C40.2422 92.4167 40.191 92.3355 36.1912 87.3555C32.1913 82.3754 24.2445 72.499 18.2045 64.1054C12.1644 55.7117 8.27196 49.1002 5.77049 44.2643C3.26901 39.4285 2.27649 36.5688 1.51655 32.3976C0.756621 28.2264 0.259362 22.8304 0.619871 18.3118C0.98038 13.7931 2.21373 10.3153 3.96709 7.61916C5.72046 4.92296 7.95647 3.11375 10.5448 2.03652C15.5079 -0.0290399 20.5578 0.478373 23.6711 0.7962C26.6594 1.10126 29.1509 2.13013 31.2568 3.24546C35.6649 5.58014 36.6662 12.0174 38.2396 17.4765C38.7646 19.2978 39.3804 19.0928 41.912 17.3089C44.4436 15.5251 49.0374 12.1432 52.2074 10.0366C56.7422 7.02313 60.3366 6.08843 63.825 5.49368C67.3751 4.88839 71.3011 5.11774 75.7277 5.52713C81.29 6.04155 85.2222 7.83708 87.2871 9.03813C89.3204 10.2208 90.8202 13.0243 92.0389 16.9226C93.1889 20.6013 92.0089 24.7875 90.4632 29.4704C89.6466 31.9443 87.9983 34.485 78.7555 46.7885C69.5127 59.0919 52.5295 81.0476 43.632 92.7231C34.7346 104.399 34.4375 105.129 34.2229 105.772C34.0082 106.415 33.8849 106.949 33.7579 107.5" stroke="black" stroke-linecap="round"/>
</svg>
